<svg width="247" height="260" viewBox="0 0 247 260" fill="none" xmlns="http://www.w3.org/2000/svg">
<g filter="url(#filter0_d_140_1178)">
<path d="M28.1854 71.2396C17.3492 90.4908 24.1709 114.881 43.4221 125.718C47.0741 127.773 50.9114 129.191 54.8057 130.012C57.3579 130.752 60.1976 131.469 63.248 132.137C67.5636 133.081 72.2146 133.914 76.9356 134.586C81.6566 135.258 86.3558 135.757 90.7635 136.054C95.171 136.352 99.2018 136.442 102.625 136.32C103.35 136.294 104.044 136.255 104.707 136.211C112.176 136.736 119.635 133.027 123.552 126.068C127.082 119.797 126.864 112.437 123.623 106.57C123.036 104.71 121.958 102.351 120.438 99.6056C118.766 96.5865 116.591 93.1578 114.038 89.5149C111.486 85.8718 108.605 82.0853 105.56 78.3729C102.516 74.6606 99.3669 71.0943 96.2941 67.8779C95.5435 67.0922 94.8013 66.3309 94.0693 65.5969C91.355 62.2615 88.0577 59.3189 84.2256 56.9305C83.0059 56.0522 81.9065 55.3612 80.9456 54.8758C80.1067 54.4521 79.3816 54.1884 78.778 54.0838C60.2423 46.1261 38.3045 53.2627 28.1854 71.2396ZM112.295 97.1391L112.397 97.2639C112.349 97.2478 112.301 97.2314 112.252 97.2157L112.295 97.1391ZM91.5342 129.945C91.5902 130.004 91.648 130.062 91.7048 130.121L91.4547 130.086L91.5342 129.945ZM77.9882 127.961L78.4827 128.24L77.8517 128.15L77.606 128.115C77.7339 128.065 77.8608 128.012 77.9882 127.961Z" fill="#629EED"/>
</g>
<g filter="url(#filter1_d_140_1178)">
<path d="M221.771 76.3867C211.643 56.754 187.516 49.0493 167.884 59.1778C164.159 61.0992 160.866 63.5258 158.04 66.3284C156.019 68.0538 153.859 70.032 151.625 72.2137C148.465 75.3002 145.213 78.7286 142.057 82.3034C138.901 85.8782 135.902 89.5299 133.231 93.0489C130.56 96.5677 128.27 99.8856 126.491 102.813C126.114 103.433 125.765 104.034 125.438 104.612C120.894 110.564 119.894 118.834 123.555 125.931C126.854 132.325 133.123 136.188 139.806 136.704C141.683 137.236 144.245 137.633 147.375 137.871C150.816 138.133 154.876 138.201 159.322 138.07C163.769 137.939 168.515 137.613 173.29 137.11C178.065 136.606 182.774 135.936 187.15 135.136C188.219 134.941 189.263 134.739 190.279 134.531C194.557 134.096 198.827 132.959 202.929 131.07C204.333 130.533 205.514 129.995 206.448 129.458C207.263 128.99 207.882 128.53 208.301 128.083C225.135 116.97 231.229 94.7201 221.771 76.3867ZM153.91 132.424L153.75 132.441C153.79 132.409 153.83 132.378 153.87 132.346L153.91 132.424ZM137.912 97.0503C137.831 97.0643 137.751 97.0807 137.67 97.0958L137.838 96.9063L137.912 97.0503ZM147.013 86.8233L146.509 87.0834L146.931 86.6055L147.095 86.4196C147.066 86.5539 147.04 86.6887 147.013 86.8233Z" fill="#B26CE8"/>
</g>
<g filter="url(#filter2_d_140_1178)">
<path d="M25.4105 175.613C35.539 195.246 59.6652 202.951 79.2979 192.822C83.0223 190.901 86.3158 188.474 89.1413 185.672C91.1625 183.946 93.3224 181.968 95.5565 179.786C98.717 176.7 101.968 173.271 105.124 169.697C108.28 166.122 111.28 162.47 113.951 158.951C116.621 155.432 118.912 152.114 120.691 149.187C121.068 148.567 121.417 147.966 121.744 147.388C126.288 141.436 127.288 133.166 123.626 126.069C120.328 119.675 114.058 115.812 107.375 115.296C105.499 114.764 102.936 114.367 99.8068 114.129C96.3655 113.867 92.3058 113.799 87.8595 113.93C83.413 114.061 78.6664 114.387 73.8916 114.89C69.117 115.394 64.4072 116.064 60.0313 116.864C58.9624 117.059 57.9185 117.261 56.903 117.469C52.6248 117.904 48.3543 119.041 44.253 120.93C42.8489 121.467 41.6674 122.005 40.7338 122.542C39.9188 123.01 39.3001 123.47 38.8809 123.917C22.0462 135.03 15.9525 157.28 25.4105 175.613ZM93.2713 119.576L93.4318 119.559C93.3917 119.591 93.3513 119.622 93.3115 119.654L93.2713 119.576ZM109.27 154.95C109.35 154.936 109.431 154.919 109.511 154.904L109.344 155.094L109.27 154.95ZM100.168 165.177L100.673 164.917L100.251 165.394L100.087 165.58C100.115 165.446 100.141 165.311 100.168 165.177Z" fill="#82AAFF"/>
</g>
<g filter="url(#filter3_d_140_1178)">
<path d="M218.996 180.76C229.832 161.509 223.01 137.119 203.759 126.282C200.107 124.227 196.27 122.809 192.375 121.988C189.823 121.248 186.984 120.531 183.933 119.863C179.618 118.919 174.967 118.086 170.246 117.414C165.525 116.742 160.825 116.243 156.418 115.946C152.01 115.648 147.979 115.558 144.556 115.68C143.831 115.706 143.137 115.745 142.474 115.789C135.005 115.264 127.546 118.973 123.629 125.932C120.099 132.203 120.318 139.563 123.559 145.43C124.146 147.29 125.223 149.649 126.743 152.394C128.416 155.413 130.59 158.842 133.143 162.485C135.696 166.128 138.576 169.915 141.621 173.627C144.666 177.339 147.814 180.906 150.887 184.122C151.638 184.908 152.38 185.669 153.112 186.403C155.826 189.738 159.123 192.681 162.956 195.069C164.175 195.948 165.275 196.639 166.236 197.124C167.074 197.548 167.8 197.812 168.403 197.916C186.939 205.874 208.877 198.737 218.996 180.76ZM134.886 154.861L134.784 154.736C134.832 154.752 134.881 154.769 134.929 154.784L134.886 154.861ZM155.647 122.055C155.591 121.996 155.533 121.938 155.476 121.879L155.726 121.914L155.647 122.055ZM169.193 124.039L168.698 123.76L169.329 123.85L169.575 123.885C169.447 123.935 169.32 123.988 169.193 124.039Z" fill="#C793FF"/>
</g>
<g filter="url(#filter4_d_140_1178)">
<path d="M124.512 16C102.421 16 84.5125 33.9086 84.5125 56C84.5125 60.1908 85.159 64.2303 86.3543 68.0264C86.961 70.6136 87.7287 73.4401 88.6433 76.4258C89.9373 80.6497 91.4934 85.111 93.2234 89.5547C94.9535 93.9984 96.8236 98.3382 98.7263 102.325C100.629 106.312 102.528 109.869 104.313 112.792C104.691 113.411 105.066 113.997 105.429 114.553C108.636 121.32 115.527 126 123.512 126C130.708 126 137.015 122.199 140.538 116.497C141.871 115.073 143.398 112.978 145.045 110.306C146.855 107.368 148.777 103.791 150.699 99.7793C152.622 95.7677 154.508 91.3999 156.25 86.9258C157.991 82.4518 159.555 77.9586 160.85 73.7031C161.167 72.6637 161.466 71.6434 161.747 70.6455C163.322 66.6441 164.269 62.3273 164.47 57.8164C164.638 56.3227 164.7 55.0257 164.652 53.9502C164.61 53.0113 164.484 52.2502 164.279 51.6729C162.122 31.6168 145.142 16.0001 124.512 16ZM143.2 102L143.141 102.15C143.132 102.1 143.122 102.05 143.112 102H143.2ZM104.428 100C104.404 100.078 104.382 100.157 104.358 100.235L104.266 100H104.428ZM99.5125 87.2227V87.79L99.281 87.1963L99.1912 86.9648C99.2974 87.0518 99.4053 87.1368 99.5125 87.2227Z" fill="#4580EE"/>
</g>
<g filter="url(#filter5_d_140_1178)">
<path d="M122.668 236C144.76 236 162.668 218.091 162.668 196C162.668 191.809 162.022 187.77 160.826 183.974C160.22 181.386 159.452 178.56 158.537 175.574C157.243 171.35 155.687 166.889 153.957 162.445C152.227 158.002 150.357 153.662 148.454 149.675C146.552 145.688 144.653 142.131 142.867 139.208C142.489 138.589 142.115 138.003 141.751 137.447C138.545 130.68 131.654 126 123.668 126C116.473 126 110.166 129.801 106.643 135.503C105.31 136.927 103.783 139.022 102.136 141.694C100.325 144.632 98.4041 148.209 96.4817 152.221C94.5591 156.232 92.6726 160.6 90.9309 165.074C89.1892 169.548 87.6259 174.041 86.3303 178.297C86.0138 179.336 85.7145 180.357 85.4338 181.354C83.8587 185.356 82.9118 189.673 82.7102 194.184C82.543 195.677 82.4802 196.974 82.5285 198.05C82.5708 198.989 82.6967 199.75 82.9016 200.327C85.0591 220.383 102.039 236 122.668 236ZM103.981 150L104.039 149.85C104.049 149.9 104.058 149.95 104.069 150H103.981ZM142.752 152C142.777 151.922 142.799 151.843 142.822 151.765L142.914 152H142.752ZM147.668 164.777V164.21L147.9 164.804L147.989 165.035C147.883 164.948 147.775 164.863 147.668 164.777Z" fill="#8EBBFF"/>
</g>
<path opacity="0.9" d="M123.513 151C137.32 151 148.513 139.807 148.513 126C148.513 112.193 137.32 101 123.513 101C109.706 101 98.5127 112.193 98.5127 126C98.5127 139.807 109.706 151 123.513 151Z" fill="#F8E6B8"/>
<defs>
<filter id="filter0_d_140_1178" x="3.03564" y="34.8547" width="143.091" height="125.518" filterUnits="userSpaceOnUse" color-interpolation-filters="sRGB">
<feFlood flood-opacity="0" result="BackgroundImageFix"/>
<feColorMatrix in="SourceAlpha" type="matrix" values="0 0 0 0 0 0 0 0 0 0 0 0 0 0 0 0 0 0 127 0" result="hardAlpha"/>
<feOffset dy="4"/>
<feGaussianBlur stdDeviation="10"/>
<feComposite in2="hardAlpha" operator="out"/>
<feColorMatrix type="matrix" values="0 0 0 0 0 0 0 0 0 0 0 0 0 0 0 0 0 0 0.25 0"/>
<feBlend mode="normal" in2="BackgroundImageFix" result="effect1_dropShadow_140_1178"/>
<feBlend mode="normal" in="SourceGraphic" in2="effect1_dropShadow_140_1178" result="shape"/>
</filter>
<filter id="filter1_d_140_1178" x="101.325" y="38.7177" width="144.906" height="123.417" filterUnits="userSpaceOnUse" color-interpolation-filters="sRGB">
<feFlood flood-opacity="0" result="BackgroundImageFix"/>
<feColorMatrix in="SourceAlpha" type="matrix" values="0 0 0 0 0 0 0 0 0 0 0 0 0 0 0 0 0 0 127 0" result="hardAlpha"/>
<feOffset dy="4"/>
<feGaussianBlur stdDeviation="10"/>
<feComposite in2="hardAlpha" operator="out"/>
<feColorMatrix type="matrix" values="0 0 0 0 0 0 0 0 0 0 0 0 0 0 0 0 0 0 0.25 0"/>
<feBlend mode="normal" in2="BackgroundImageFix" result="effect1_dropShadow_140_1178"/>
<feBlend mode="normal" in="SourceGraphic" in2="effect1_dropShadow_140_1178" result="shape"/>
</filter>
<filter id="filter2_d_140_1178" x="0.950684" y="97.8654" width="144.906" height="123.417" filterUnits="userSpaceOnUse" color-interpolation-filters="sRGB">
<feFlood flood-opacity="0" result="BackgroundImageFix"/>
<feColorMatrix in="SourceAlpha" type="matrix" values="0 0 0 0 0 0 0 0 0 0 0 0 0 0 0 0 0 0 127 0" result="hardAlpha"/>
<feOffset dy="4"/>
<feGaussianBlur stdDeviation="10"/>
<feComposite in2="hardAlpha" operator="out"/>
<feColorMatrix type="matrix" values="0 0 0 0 0 0 0 0 0 0 0 0 0 0 0 0 0 0 0.25 0"/>
<feBlend mode="normal" in2="BackgroundImageFix" result="effect1_dropShadow_140_1178"/>
<feBlend mode="normal" in="SourceGraphic" in2="effect1_dropShadow_140_1178" result="shape"/>
</filter>
<filter id="filter3_d_140_1178" x="101.055" y="99.6272" width="143.091" height="125.518" filterUnits="userSpaceOnUse" color-interpolation-filters="sRGB">
<feFlood flood-opacity="0" result="BackgroundImageFix"/>
<feColorMatrix in="SourceAlpha" type="matrix" values="0 0 0 0 0 0 0 0 0 0 0 0 0 0 0 0 0 0 127 0" result="hardAlpha"/>
<feOffset dy="4"/>
<feGaussianBlur stdDeviation="10"/>
<feComposite in2="hardAlpha" operator="out"/>
<feColorMatrix type="matrix" values="0 0 0 0 0 0 0 0 0 0 0 0 0 0 0 0 0 0 0.25 0"/>
<feBlend mode="normal" in2="BackgroundImageFix" result="effect1_dropShadow_140_1178"/>
<feBlend mode="normal" in="SourceGraphic" in2="effect1_dropShadow_140_1178" result="shape"/>
</filter>
<filter id="filter4_d_140_1178" x="64.5127" y="0" width="120.155" height="150" filterUnits="userSpaceOnUse" color-interpolation-filters="sRGB">
<feFlood flood-opacity="0" result="BackgroundImageFix"/>
<feColorMatrix in="SourceAlpha" type="matrix" values="0 0 0 0 0 0 0 0 0 0 0 0 0 0 0 0 0 0 127 0" result="hardAlpha"/>
<feOffset dy="4"/>
<feGaussianBlur stdDeviation="10"/>
<feComposite in2="hardAlpha" operator="out"/>
<feColorMatrix type="matrix" values="0 0 0 0 0 0 0 0 0 0 0 0 0 0 0 0 0 0 0.25 0"/>
<feBlend mode="normal" in2="BackgroundImageFix" result="effect1_dropShadow_140_1178"/>
<feBlend mode="normal" in="SourceGraphic" in2="effect1_dropShadow_140_1178" result="shape"/>
</filter>
<filter id="filter5_d_140_1178" x="62.5127" y="110" width="120.155" height="150" filterUnits="userSpaceOnUse" color-interpolation-filters="sRGB">
<feFlood flood-opacity="0" result="BackgroundImageFix"/>
<feColorMatrix in="SourceAlpha" type="matrix" values="0 0 0 0 0 0 0 0 0 0 0 0 0 0 0 0 0 0 127 0" result="hardAlpha"/>
<feOffset dy="4"/>
<feGaussianBlur stdDeviation="10"/>
<feComposite in2="hardAlpha" operator="out"/>
<feColorMatrix type="matrix" values="0 0 0 0 0 0 0 0 0 0 0 0 0 0 0 0 0 0 0.25 0"/>
<feBlend mode="normal" in2="BackgroundImageFix" result="effect1_dropShadow_140_1178"/>
<feBlend mode="normal" in="SourceGraphic" in2="effect1_dropShadow_140_1178" result="shape"/>
</filter>
</defs>
</svg>
